<svg width="738" height="364" viewBox="0 0 738 364" fill="none" xmlns="http://www.w3.org/2000/svg">
<path d="M210.098 0H164.648H0L105.135 182L164.648 284.922L187.459 245.468L139.436 162.102L68.4318 39.6249H187.459L230.336 113.9L246.8 142.547L269.611 103.093L264.466 94.1734L210.098 0ZM187.287 324.547L210.098 364C263.094 272.228 315.918 180.628 368.914 88.8558C421.91 180.628 474.735 272.228 527.731 364L550.541 324.547L417.28 93.6588L415.221 90.0565L391.725 49.4025L368.914 9.94914L325.866 84.5674L324.322 87.312L187.287 324.547ZM573.352 285.093L632.865 182L738 0H573.352H527.902L473.534 94.1734L468.389 103.093L491.2 142.547L507.664 113.9L550.541 39.6249H669.568L598.735 162.273L550.713 245.64L573.352 285.093Z" fill="#5773FF"/>
</svg>
